<?xml version="1.0" encoding="UTF-8" standalone="no"?>
<!-- Generator: Adobe Illustrator 21.0.0, SVG Export Plug-In . SVG Version: 6.00 Build 0)  -->

<svg
   xmlns:dc="http://purl.org/dc/elements/1.1/"
   xmlns:cc="http://creativecommons.org/ns#"
   xmlns:rdf="http://www.w3.org/1999/02/22-rdf-syntax-ns#"
   xmlns:svg="http://www.w3.org/2000/svg"
   xmlns="http://www.w3.org/2000/svg"
   xmlns:sodipodi="http://sodipodi.sourceforge.net/DTD/sodipodi-0.dtd"
   xmlns:inkscape="http://www.inkscape.org/namespaces/inkscape"
   version="1.1"
   id="Layer_1"
   x="0px"
   y="0px"
   viewBox="0 0 512.00001 512.00001"
   xml:space="preserve"
   inkscape:version="0.91 r13725"
   sodipodi:docname="icon.svg"
   width="512"
   height="512"
   inkscape:export-filename="A:\git\nyc-tile-example\src\main\webapp\show\img\icon-60.png"
   inkscape:export-xdpi="10.546875"
   inkscape:export-ydpi="10.546875"><metadata
     id="metadata35"><rdf:RDF><cc:Work
         rdf:about=""><dc:format>image/svg+xml</dc:format><dc:type
           rdf:resource="http://purl.org/dc/dcmitype/StillImage" /><dc:title></dc:title></cc:Work></rdf:RDF></metadata><defs
     id="defs33" /><sodipodi:namedview
     pagecolor="#ffffff"
     bordercolor="#666666"
     borderopacity="1"
     objecttolerance="10"
     gridtolerance="10"
     guidetolerance="10"
     inkscape:pageopacity="0"
     inkscape:pageshadow="2"
     inkscape:window-width="1600"
     inkscape:window-height="838"
     id="namedview31"
     showgrid="false"
     inkscape:zoom="1.3066406"
     inkscape:cx="125.5127"
     inkscape:cy="256"
     inkscape:window-x="-8"
     inkscape:window-y="152"
     inkscape:window-maximized="1"
     inkscape:current-layer="Layer_1" /><style
     type="text/css"
     id="style3">
	.st0{fill:#FFFFFF;}
	.st1{fill:#FCB315;}
</style><rect
     style="fill:#1259a7;fill-opacity:1;fill-rule:evenodd;stroke:none;stroke-width:1.92092001px;stroke-linecap:butt;stroke-linejoin:miter;stroke-opacity:1"
     id="rect3363"
     width="510.07907"
     height="510.07907"
     x="0.96046448"
     y="0.96046448"
     ry="6.8878922" /><g
     id="g23"
     transform="matrix(3.1890034,0,0,3.1890034,24.000001,30.66667)"
     style="fill:#ffffff;fill-opacity:1"><polygon
       class="st1"
       points="145.5,30.3 142.4,27.3 127.3,27.3 127.3,30.3 115.2,30.3 115.2,18.2 127.3,18.2 127.3,21.2 142.4,21.2 145.5,18.2 145.5,9.1 136.4,0 106.1,0 97,9.1 97,39.4 106.1,48.5 136.4,48.5 145.5,39.4 "
       id="polygon25"
       style="fill:#ffffff;fill-opacity:1" /><polygon
       class="st1"
       points="33.3,48.5 33.3,48.5 45.5,48.5 48.5,45.5 48.5,3 45.5,0 33.3,0 30.3,3 30.3,15.2 15.2,0 3,0 0,3 0,45.5 3,48.5 15.2,48.5 18.2,45.5 18.2,33.3 "
       id="polygon27"
       style="fill:#ffffff;fill-opacity:1" /><polygon
       class="st1"
       points="48.5,21.2 63.6,36.4 63.6,45.5 66.7,48.5 78.8,48.5 81.8,45.5 81.8,36.4 97,21.2 97,3 93.9,0 81.8,0 78.8,3 78.8,9.1 72.7,15.2 66.7,9.1 66.7,9.1 66.7,3 63.6,0 51.5,0 48.5,3 "
       id="polygon29"
       style="fill:#ffffff;fill-opacity:1" /></g><g
     transform="matrix(0.41965021,0,0,0.41965021,-118.37724,176.24994)"
     style="fill:#ffffff"
     id="g4"><path
       inkscape:connector-curvature="0"
       d="M 833.556,367.574 C 825.803,359.619 814.97,355.419 803.9,356.025 l -133.981,7.458 73.733,-83.975 c 10.504,-11.962 13.505,-27.908 9.444,-42.157 -2.143,-9.764 -8.056,-18.648 -17.14,-24.324 -0.279,-0.199 -176.247,-102.423 -176.247,-102.423 -14.369,-8.347 -32.475,-6.508 -44.875,4.552 l -85.958,76.676 c -15.837,14.126 -17.224,38.416 -3.097,54.254 14.128,15.836 38.419,17.227 54.255,3.096 l 65.168,-58.131 53.874,31.285 -95.096,108.305 c -39.433,6.431 -74.913,24.602 -102.765,50.801 l 49.66,49.66 c 22.449,-20.412 52.256,-32.871 84.918,-32.871 69.667,0 126.346,56.68 126.346,126.348 0,32.662 -12.459,62.467 -32.869,84.916 l 49.657,49.66 c 33.08,-35.166 53.382,-82.484 53.382,-134.576 0,-31.035 -7.205,-60.384 -20.016,-86.482 l 51.861,-2.889 -12.616,154.75 c -1.725,21.152 14.027,39.695 35.18,41.422 1.059,0.086 2.116,0.127 3.163,0.127 19.806,0 36.621,-15.219 38.257,-35.306 l 16.193,-198.685 c 0.904,-11.071 -3.026,-21.989 -10.775,-29.942 z"
       id="path6" /><path
       inkscape:connector-curvature="0"
       d="m 762.384,202.965 c 35.523,0 64.317,-28.797 64.317,-64.322 0,-35.523 -28.794,-64.323 -64.317,-64.323 -35.527,0 -64.323,28.8 -64.323,64.323 0,35.525 28.795,64.322 64.323,64.322 z"
       id="path8" /><path
       inkscape:connector-curvature="0"
       d="m 535.794,650.926 c -69.668,0 -126.348,-56.68 -126.348,-126.348 0,-26.256 8.056,-50.66 21.817,-70.887 l -50.196,-50.195 c -26.155,33.377 -41.791,75.393 -41.791,121.082 0,108.535 87.983,196.517 196.518,196.517 45.691,0 87.703,-15.636 121.079,-41.792 L 606.678,629.11 c -20.226,13.757 -44.63,21.816 -70.884,21.816 z"
       id="path10" /></g><g
     transform="matrix(0.23791115,0,0,0.27695816,252.46796,204.66903)"
     id="g6"
     style="fill:#ffffff;fill-opacity:1"><path
       inkscape:connector-curvature="0"
       d="M 500,10 C 229.4,10 10,229.4 10,500 10,695.6 124.6,864.3 290.2,942.9 295.7,831.7 302,725.4 308.9,645.9 249.5,630.8 204.6,558.9 204.6,472.4 204.6,375 261.7,296 332.2,296 c 70.5,0 127.6,79 127.6,176.4 0,86.4 -45,158.3 -104.3,173.5 7.5,86.9 14.4,205.8 20.2,328.2 39.7,10.4 81.3,15.9 124.3,15.9 43,0 84.6,-5.5 124.4,-15.9 5.8,-121.5 12.5,-239.6 20,-326.4 -59.3,-6.2 -104.2,-38.3 -104.2,-124.7 0,-75 5.3,-169 61.9,-208.4 l 0,170.6 c 0,11 9,20 20,20 l 4.1,0 c 11,0 20,-9 20,-20 l 0,-187.6 c 6.8,-1 14,-1.6 21.7,-1.6 7.7,0 14.9,0.6 21.7,1.7 l 0,187.5 c 0,11 9,20 20,20 l 4.2,0 c 11,0 20,-9 20,-20 l 0,-169.8 c 55.1,39.8 61.9,133.1 61.9,207.6 0,86.4 -44.9,118.5 -104.2,124.7 C 698.3,727 704.6,832.6 710,943 875.4,864.3 990,695.6 990,500 990,229.4 770.6,10 500,10 Z m 89.5,839.2 c 11.1,-2.8 22.4,3.9 25.2,14.9 2.8,11.1 -3.9,22.4 -14.9,25.2 -32.4,8.3 -66,12.5 -99.8,12.5 -32.2,0 -64.2,-3.8 -95.2,-11.4 -11.1,-2.7 -17.9,-13.9 -15.2,-25 2.7,-11.1 13.9,-17.9 25,-15.2 27.8,6.8 56.5,10.2 85.4,10.2 30.3,0 60.4,-3.8 89.5,-11.2 z m 173.9,-45.8 c -8.6,7.5 -21.7,6.6 -29.2,-2.1 -7.5,-8.6 -6.6,-21.7 2.1,-29.2 78.9,-68.5 124.1,-167.8 124.1,-272.2 0,-198.7 -161.7,-360.4 -360.4,-360.4 -198.7,0 -360.4,161.7 -360.4,360.4 0,111.5 50.4,214.9 138.2,283.8 9,7.1 10.6,20.1 3.5,29.1 -4.1,5.2 -10.2,7.9 -16.3,7.9 -4.5,0 -9,-1.4 -12.8,-4.4 C 205.3,779.6 166.5,732 140,678.8 112.2,623 98.1,562.8 98.1,500 98.1,392.7 139.9,291.8 215.8,215.9 291.8,140 392.7,98.2 500,98.2 c 107.3,0 208.2,41.8 284.1,117.7 75.9,75.9 117.7,176.8 117.7,284.1 0,116.4 -50.4,227 -138.4,303.4 z"
       id="path8-2"
       style="fill:#ffffff;fill-opacity:1" /></g></svg>