<?xml version="1.0" encoding="UTF-8" standalone="no"?>
<!-- Created with Inkscape (http://www.inkscape.org/) -->

<svg
   xmlns:dc="http://purl.org/dc/elements/1.1/"
   xmlns:cc="http://creativecommons.org/ns#"
   xmlns:rdf="http://www.w3.org/1999/02/22-rdf-syntax-ns#"
   xmlns:svg="http://www.w3.org/2000/svg"
   xmlns="http://www.w3.org/2000/svg"
   xmlns:sodipodi="http://sodipodi.sourceforge.net/DTD/sodipodi-0.dtd"
   xmlns:inkscape="http://www.inkscape.org/namespaces/inkscape"
   width="250"
   height="305"
   viewBox="0 0 249.99999 305.00001"
   id="svg4179"
   version="1.1"
   inkscape:version="0.91 r13725"
   sodipodi:docname="plate.svg">
  <defs
     id="defs4181" />
  <sodipodi:namedview
     id="base"
     pagecolor="#ffffff"
     bordercolor="#666666"
     borderopacity="1.0"
     inkscape:pageopacity="0.0"
     inkscape:pageshadow="2"
     inkscape:zoom="2.3633333"
     inkscape:cx="117.5"
     inkscape:cy="150"
     inkscape:document-units="px"
     inkscape:current-layer="layer1"
     showgrid="false"
     units="px"
     inkscape:window-width="1600"
     inkscape:window-height="878"
     inkscape:window-x="1592"
     inkscape:window-y="-8"
     inkscape:window-maximized="1" />
  <metadata
     id="metadata4184">
    <rdf:RDF>
      <cc:Work
         rdf:about="">
        <dc:format>image/svg+xml</dc:format>
        <dc:type
           rdf:resource="http://purl.org/dc/dcmitype/StillImage" />
        <dc:title></dc:title>
      </cc:Work>
    </rdf:RDF>
  </metadata>
  <g
     inkscape:label="Layer 1"
     inkscape:groupmode="layer"
     id="layer1"
     transform="translate(0,-747.36216)">
    <g
       transform="matrix(0.24980795,0,0,0.29900335,0.09601737,750.36049)"
       id="g6"
       style="fill:#1259a7;fill-opacity:1;stroke:#ffffff;stroke-width:14.6360817;stroke-miterlimit:4;stroke-dasharray:none;stroke-opacity:1">
      <path
         inkscape:connector-curvature="0"
         d="M 500,10 C 229.4,10 10,229.4 10,500 10,695.6 124.6,864.3 290.2,942.9 295.7,831.7 302,725.4 308.9,645.9 249.5,630.8 204.6,558.9 204.6,472.4 204.6,375 261.7,296 332.2,296 c 70.5,0 127.6,79 127.6,176.4 0,86.4 -45,158.3 -104.3,173.5 7.5,86.9 14.4,205.8 20.2,328.2 39.7,10.4 81.3,15.9 124.3,15.9 43,0 84.6,-5.5 124.4,-15.9 5.8,-121.5 12.5,-239.6 20,-326.4 -59.3,-6.2 -104.2,-38.3 -104.2,-124.7 0,-75 5.3,-169 61.9,-208.4 l 0,170.6 c 0,11 9,20 20,20 l 4.1,0 c 11,0 20,-9 20,-20 l 0,-187.6 c 6.8,-1 14,-1.6 21.7,-1.6 7.7,0 14.9,0.6 21.7,1.7 l 0,187.5 c 0,11 9,20 20,20 l 4.2,0 c 11,0 20,-9 20,-20 l 0,-169.8 c 55.1,39.8 61.9,133.1 61.9,207.6 0,86.4 -44.9,118.5 -104.2,124.7 C 698.3,727 704.6,832.6 710,943 875.4,864.3 990,695.6 990,500 990,229.4 770.6,10 500,10 Z m 89.5,839.2 c 11.1,-2.8 22.4,3.9 25.2,14.9 2.8,11.1 -3.9,22.4 -14.9,25.2 -32.4,8.3 -66,12.5 -99.8,12.5 -32.2,0 -64.2,-3.8 -95.2,-11.4 -11.1,-2.7 -17.9,-13.9 -15.2,-25 2.7,-11.1 13.9,-17.9 25,-15.2 27.8,6.8 56.5,10.2 85.4,10.2 30.3,0 60.4,-3.8 89.5,-11.2 z m 173.9,-45.8 c -8.6,7.5 -21.7,6.6 -29.2,-2.1 -7.5,-8.6 -6.6,-21.7 2.1,-29.2 78.9,-68.5 124.1,-167.8 124.1,-272.2 0,-198.7 -161.7,-360.4 -360.4,-360.4 -198.7,0 -360.4,161.7 -360.4,360.4 0,111.5 50.4,214.9 138.2,283.8 9,7.1 10.6,20.1 3.5,29.1 -4.1,5.2 -10.2,7.9 -16.3,7.9 -4.5,0 -9,-1.4 -12.8,-4.4 C 205.3,779.6 166.5,732 140,678.8 112.2,623 98.1,562.8 98.1,500 98.1,392.7 139.9,291.8 215.8,215.9 291.8,140 392.7,98.2 500,98.2 c 107.3,0 208.2,41.8 284.1,117.7 75.9,75.9 117.7,176.8 117.7,284.1 0,116.4 -50.4,227 -138.4,303.4 z"
         id="path8-2"
         style="fill:#1259a7;fill-opacity:1;stroke:#ffffff;stroke-width:14.6360817;stroke-miterlimit:4;stroke-dasharray:none;stroke-opacity:1" />
    </g>
  </g>
</svg>
